<svg xmlns="http://www.w3.org/2000/svg" width="64" height="64">
  <defs>
    <style>
      @keyframes am-weather-cloud-1{0%,to{-webkit-transform:translate(-5px,0);-moz-transform:translate(-5px,0);-ms-transform:translate(-5px,0);transform:translate(-5px,0)}50%{-webkit-transform:translate(10px,0);-moz-transform:translate(10px,0);-ms-transform:translate(10px,0);transform:translate(10px,0)}}@keyframes am-weather-cloud-2{0%,to{-webkit-transform:translate(0,0);-moz-transform:translate(0,0);-ms-transform:translate(0,0);transform:translate(0,0)}50%{-webkit-transform:translate(2px,0);-moz-transform:translate(2px,0);-ms-transform:translate(2px,0);transform:translate(2px,0)}}@keyframes am-weather-stroke{0%,12%,16%,20%,24%,28%,4%,8%,to{-webkit-transform:translate(0,0);-moz-transform:translate(0,0);-ms-transform:translate(0,0);transform:translate(0,0)}10%,14%,18%,2%{-webkit-transform:translate(.3px,0);-moz-transform:translate(.3px,0);-ms-transform:translate(.3px,0);transform:translate(.3px,0)}6%{-webkit-transform:translate(.5px,.4px);-moz-transform:translate(.5px,.4px);-ms-transform:translate(.5px,.4px);transform:translate(.5px,.4px)}22%{-webkit-transform:translate(1px,0);-moz-transform:translate(1px,0);-ms-transform:translate(1px,0);transform:translate(1px,0)}26%{-webkit-transform:translate(-1px,0);-moz-transform:translate(-1px,0);-ms-transform:translate(-1px,0);transform:translate(-1px,0)}40%{fill:orange;-webkit-transform:translate(0,0);-moz-transform:translate(0,0);-ms-transform:translate(0,0);transform:translate(0,0)}65%{fill:#fff;-webkit-transform:translate(-1px,5px);-moz-transform:translate(-1px,5px);-ms-transform:translate(-1px,5px);transform:translate(-1px,5px)}61%{fill:orange}}@keyframes am-weather-sun{0%{-webkit-transform:rotate(0deg);-moz-transform:rotate(0deg);-ms-transform:rotate(0deg);transform:rotate(0deg)}to{-webkit-transform:rotate(360deg);-moz-transform:rotate(360deg);-ms-transform:rotate(360deg);transform:rotate(360deg)}}@keyframes am-weather-sun-shiny{0%,to{stroke-dasharray:3px 10px;stroke-dashoffset:0}50%{stroke-dasharray:.1px 10px;stroke-dashoffset:-1px}}@keyframes am-weather-moon{0%,to{-webkit-transform:rotate(0deg);-moz-transform:rotate(0deg);-ms-transform:rotate(0deg);transform:rotate(0deg)}50%{-webkit-transform:rotate(15deg);-moz-transform:rotate(15deg);-ms-transform:rotate(15deg);transform:rotate(15deg)}}@keyframes am-weather-moon-star-1{0%{opacity:0}to{opacity:1}}@keyframes am-weather-moon-star-2{0%{opacity:0}to{opacity:1}}@keyframes am-weather-rain{0%{stroke-dashoffset:0}to{stroke-dashoffset:-100}}@keyframes am-weather-snow{0%{-webkit-transform:translateX(0) translateY(0);-moz-transform:translateX(0) translateY(0);-ms-transform:translateX(0) translateY(0);transform:translateX(0) translateY(0)}33.33%{-webkit-transform:translateX(-1.2px) translateY(2px);-moz-transform:translateX(-1.2px) translateY(2px);-ms-transform:translateX(-1.2px) translateY(2px);transform:translateX(-1.2px) translateY(2px)}66.66%{-webkit-transform:translateX(1.4px) translateY(4px);-moz-transform:translateX(1.4px) translateY(4px);-ms-transform:translateX(1.4px) translateY(4px);transform:translateX(1.4px) translateY(4px);opacity:1}to{-webkit-transform:translateX(-1.6px) translateY(6px);-moz-transform:translateX(-1.6px) translateY(6px);-ms-transform:translateX(-1.6px) translateY(6px);transform:translateX(-1.6px) translateY(6px);opacity:0}}@keyframes am-weather-snow-reverse{0%{-webkit-transform:translateX(0) translateY(0);-moz-transform:translateX(0) translateY(0);-ms-transform:translateX(0) translateY(0);transform:translateX(0) translateY(0)}33.33%{-webkit-transform:translateX(1.2px) translateY(2px);-moz-transform:translateX(1.2px) translateY(2px);-ms-transform:translateX(1.2px) translateY(2px);transform:translateX(1.2px) translateY(2px)}66.66%{-webkit-transform:translateX(-1.4px) translateY(4px);-moz-transform:translateX(-1.4px) translateY(4px);-ms-transform:translateX(-1.4px) translateY(4px);transform:translateX(-1.4px) translateY(4px);opacity:1}to{-webkit-transform:translateX(1.6px) translateY(6px);-moz-transform:translateX(1.6px) translateY(6px);-ms-transform:translateX(1.6px) translateY(6px);transform:translateX(1.6px) translateY(6px);opacity:0}}.am-weather-cloud-1,.am-weather-cloud-2,.am-weather-moon,.am-weather-stroke,.am-weather-sun,.am-weather-sun-shiny line{-webkit-animation-name:am-weather-cloud-1;-moz-animation-name:am-weather-cloud-1;animation-name:am-weather-cloud-1;-webkit-animation-duration:7s;-moz-animation-duration:7s;animation-duration:7s;-webkit-animation-timing-function:linear;-moz-animation-timing-function:linear;animation-timing-function:linear;-webkit-animation-iteration-count:infinite;-moz-animation-iteration-count:infinite;animation-iteration-count:infinite}.am-weather-cloud-2,.am-weather-moon,.am-weather-stroke,.am-weather-sun,.am-weather-sun-shiny line{-webkit-animation-name:am-weather-cloud-2;-moz-animation-name:am-weather-cloud-2;animation-name:am-weather-cloud-2;-webkit-animation-duration:3s;-moz-animation-duration:3s;animation-duration:3s}.am-weather-moon,.am-weather-stroke,.am-weather-sun,.am-weather-sun-shiny line{-webkit-animation-name:am-weather-stroke;-moz-animation-name:am-weather-stroke;animation-name:am-weather-stroke;-webkit-animation-duration:1.11s;-moz-animation-duration:1.11s;animation-duration:1.11s}.am-weather-moon,.am-weather-sun,.am-weather-sun-shiny line{-webkit-animation-name:am-weather-sun;-moz-animation-name:am-weather-sun;-ms-animation-name:am-weather-sun;animation-name:am-weather-sun;-webkit-animation-duration:9s;-moz-animation-duration:9s;-ms-animation-duration:9s;animation-duration:9s;-ms-animation-timing-function:linear;-ms-animation-iteration-count:infinite}.am-weather-moon,.am-weather-sun-shiny line{-webkit-animation-name:am-weather-sun-shiny;-moz-animation-name:am-weather-sun-shiny;-ms-animation-name:am-weather-sun-shiny;animation-name:am-weather-sun-shiny;-webkit-animation-duration:2s;-moz-animation-duration:2s;-ms-animation-duration:2s;animation-duration:2s}.am-weather-moon{-webkit-animation-name:am-weather-moon;-moz-animation-name:am-weather-moon;-ms-animation-name:am-weather-moon;animation-name:am-weather-moon;-webkit-animation-duration:6s;-moz-animation-duration:6s;-ms-animation-duration:6s;animation-duration:6s;-webkit-transform-origin:12.5px 15.15px 0;-moz-transform-origin:12.5px 15.15px 0;-ms-transform-origin:12.5px 15.15px 0;transform-origin:12.5px 15.15px 0}.am-weather-moon-star-1{-webkit-animation-name:am-weather-moon-star-1;-moz-animation-name:am-weather-moon-star-1;-ms-animation-name:am-weather-moon-star-1;animation-name:am-weather-moon-star-1;-webkit-animation-delay:3s;-moz-animation-delay:3s;-ms-animation-delay:3s;animation-delay:3s;-webkit-animation-duration:5s;-moz-animation-duration:5s;-ms-animation-duration:5s;animation-duration:5s;-webkit-animation-iteration-count:1;-moz-animation-iteration-count:1;-ms-animation-iteration-count:1;animation-iteration-count:1}.am-weather-moon-star-1,.am-weather-moon-star-2,.am-weather-rain-1,.am-weather-rain-2{-webkit-animation-timing-function:linear;-moz-animation-timing-function:linear;-ms-animation-timing-function:linear;animation-timing-function:linear}.am-weather-moon-star-2{-webkit-animation-name:am-weather-moon-star-2;-moz-animation-name:am-weather-moon-star-2;-ms-animation-name:am-weather-moon-star-2;animation-name:am-weather-moon-star-2;-webkit-animation-delay:5s;-moz-animation-delay:5s;-ms-animation-delay:5s;animation-delay:5s;-webkit-animation-duration:4s;-moz-animation-duration:4s;-ms-animation-duration:4s;animation-duration:4s;-webkit-animation-iteration-count:1;-moz-animation-iteration-count:1;-ms-animation-iteration-count:1;animation-iteration-count:1}.am-weather-rain-1,.am-weather-rain-2{-webkit-animation-name:am-weather-rain;-moz-animation-name:am-weather-rain;-ms-animation-name:am-weather-rain;animation-name:am-weather-rain;-webkit-animation-duration:8s;-moz-animation-duration:8s;-ms-animation-duration:8s;animation-duration:8s;-webkit-animation-iteration-count:infinite;-moz-animation-iteration-count:infinite;-ms-animation-iteration-count:infinite;animation-iteration-count:infinite}.am-weather-rain-2{-webkit-animation-delay:.25s;-moz-animation-delay:.25s;-ms-animation-delay:.25s;animation-delay:.25s}.am-weather-snow-1{-webkit-animation-name:am-weather-snow;-moz-animation-name:am-weather-snow;-ms-animation-name:am-weather-snow;animation-name:am-weather-snow}.am-weather-snow-1,.am-weather-snow-2,.am-weather-snow-3{-webkit-animation-duration:2s;-moz-animation-duration:2s;-ms-animation-duration:2s;animation-duration:2s;-webkit-animation-timing-function:linear;-moz-animation-timing-function:linear;-ms-animation-timing-function:linear;animation-timing-function:linear;-webkit-animation-iteration-count:infinite;-moz-animation-iteration-count:infinite;-ms-animation-iteration-count:infinite;animation-iteration-count:infinite}.am-weather-snow-2{-webkit-animation-name:am-weather-snow;-moz-animation-name:am-weather-snow;-ms-animation-name:am-weather-snow;animation-name:am-weather-snow;-webkit-animation-delay:1.2s;-moz-animation-delay:1.2s;-ms-animation-delay:1.2s;animation-delay:1.2s}.am-weather-snow-3{-webkit-animation-name:am-weather-snow-reverse;-moz-animation-name:am-weather-snow-reverse;-ms-animation-name:am-weather-snow-reverse;animation-name:am-weather-snow-reverse}.am-weather-easing-ease-in-out{-webkit-animation-timing-function:ease-in-out;-moz-animation-timing-function:ease-in-out;-ms-animation-timing-function:ease-in-out;animation-timing-function:ease-in-out}
    </style>
  </defs>
  <g id="thunder">
    <g transform="translate(20,10)">
      <g class="am-weather-cloud-1">
        <path d="M18.62 15.24c0-2.76-2.22-4.92-4.92-4.92-.6 0-1.14.12-1.68.3-.18-2.04-1.86-3.72-3.96-3.72-2.22 0-4.02 1.8-4.02 4.02 0 .48.12.96.24 1.38-.18-.06-.42-.06-.6-.06-2.22 0-4.02 1.8-4.02 4.02 0 2.16 1.74 3.96 3.9 4.02h10.32c2.64-.3 4.74-2.4 4.74-5.04z" fill="#91C0F8" stroke="#fff" stroke-linejoin="round" stroke-width=".72"/>
      </g>
      <g>
        <path d="M27.7 24.4c0-4.6-3.7-8.2-8.2-8.2-1 0-1.9.2-2.8.5-.3-3.4-3.1-6.2-6.6-6.2-3.7 0-6.7 3-6.7 6.7 0 .8.2 1.6.4 2.3-.3-.1-.7-.1-1-.1-3.7 0-6.7 3-6.7 6.7 0 3.6 2.9 6.6 6.5 6.7h17.2c4.4-.5 7.9-4 7.9-8.4z" fill="#57A0EE" stroke="#fff" stroke-linejoin="round" stroke-width="1.2"/>
      </g>
      <g transform="translate(-9,28), scale(1.2)">
        <path class="am-weather-stroke" fill="orange" stroke="#fff" d="M14.3-2.9h6.2l-4.1 7.2h3.9l-8.8 10.3 3.4-7.7h-3.8z"/>
      </g>
    </g>
  </g>
  <g id="day">
    <g transform="translate(32,32)">
      <g class="am-weather-sun am-weather-sun-shiny am-weather-easing-ease-in-out">
        <g>
          <path fill="none" stroke="orange" stroke-linecap="round" stroke-width="2" d="M0 9v3"/>
        </g>
        <g transform="rotate(45)">
          <path fill="none" stroke="orange" stroke-linecap="round" stroke-width="2" d="M0 9v3"/>
        </g>
        <g transform="rotate(90)">
          <path fill="none" stroke="orange" stroke-linecap="round" stroke-width="2" d="M0 9v3"/>
        </g>
        <g transform="rotate(135)">
          <path fill="none" stroke="orange" stroke-linecap="round" stroke-width="2" d="M0 9v3"/>
        </g>
        <g transform="rotate(180)">
          <path fill="none" stroke="orange" stroke-linecap="round" stroke-width="2" d="M0 9v3"/>
        </g>
        <g transform="rotate(225)">
          <path fill="none" stroke="orange" stroke-linecap="round" stroke-width="2" d="M0 9v3"/>
        </g>
        <g transform="rotate(270)">
          <path fill="none" stroke="orange" stroke-linecap="round" stroke-width="2" d="M0 9v3"/>
        </g>
        <g transform="rotate(315)">
          <path fill="none" stroke="orange" stroke-linecap="round" stroke-width="2" d="M0 9v3"/>
        </g>
      </g>
      <circle fill="orange" r="5" stroke="orange" stroke-width="2"/>
    </g>
  </g>
  <g id="night">
    <g transform="translate(20,20)">
      <g class="am-weather-moon-star-1">
        <path fill="orange" stroke-miterlimit="10" d="M3.3 1.5 4 2.7l1.2.6L4 4l-.7 1.2L2.7 4l-1.2-.7 1.2-.6z"/>
      </g>
      <g class="am-weather-moon-star-2">
        <path fill="orange" stroke-miterlimit="10" transform="translate(20,10)" d="M3.3 1.5 4 2.7l1.2.6L4 4l-.7 1.2L2.7 4l-1.2-.7 1.2-.6z"/>
      </g>
      <g class="am-weather-moon">
        <path d="M14.5 13.2c0-3.7 2-6.9 5-8.7-1.5-.9-3.2-1.3-5-1.3-5.5 0-10 4.5-10 10s4.5 10 10 10c1.8 0 3.5-.5 5-1.3-3-1.7-5-5-5-8.7z" fill="orange" stroke="orange" stroke-linejoin="round" stroke-width="2"/>
      </g>
    </g>
  </g>
  <g id="cloudy-day-1">
    <g transform="translate(20,10)">
      <g transform="translate(0,16)">
        <g class="am-weather-sun">
          <g>
            <path fill="none" stroke="orange" stroke-linecap="round" stroke-width="2" d="M0 9v3"/>
          </g>
          <g transform="rotate(45)">
            <path fill="none" stroke="orange" stroke-linecap="round" stroke-width="2" d="M0 9v3"/>
          </g>
          <g transform="rotate(90)">
            <path fill="none" stroke="orange" stroke-linecap="round" stroke-width="2" d="M0 9v3"/>
          </g>
          <g transform="rotate(135)">
            <path fill="none" stroke="orange" stroke-linecap="round" stroke-width="2" d="M0 9v3"/>
          </g>
          <g transform="rotate(180)">
            <path fill="none" stroke="orange" stroke-linecap="round" stroke-width="2" d="M0 9v3"/>
          </g>
          <g transform="rotate(225)">
            <path fill="none" stroke="orange" stroke-linecap="round" stroke-width="2" d="M0 9v3"/>
          </g>
          <g transform="rotate(270)">
            <path fill="none" stroke="orange" stroke-linecap="round" stroke-width="2" d="M0 9v3"/>
          </g>
          <g transform="rotate(315)">
            <path fill="none" stroke="orange" stroke-linecap="round" stroke-width="2" d="M0 9v3"/>
          </g>
        </g>
        <circle fill="orange" r="5" stroke="orange" stroke-width="2"/>
      </g>
      <g class="am-weather-cloud-2">
        <path d="M27.7 24.4c0-4.6-3.7-8.2-8.2-8.2-1 0-1.9.2-2.8.5-.3-3.4-3.1-6.2-6.6-6.2-3.7 0-6.7 3-6.7 6.7 0 .8.2 1.6.4 2.3-.3-.1-.7-.1-1-.1-3.7 0-6.7 3-6.7 6.7 0 3.6 2.9 6.6 6.5 6.7h17.2c4.4-.5 7.9-4 7.9-8.4z" fill="#C6DEFF" stroke="#fff" stroke-linejoin="round" stroke-width="1.2"/>
      </g>
    </g>
  </g>
  <g id="cloudy-night-1">
    <g transform="translate(20,10)">
      <g transform="translate(16,4), scale(0.8)">
        <g class="am-weather-moon-star-1">
          <path fill="orange" stroke-miterlimit="10" d="M3.3 1.5 4 2.7l1.2.6L4 4l-.7 1.2L2.7 4l-1.2-.7 1.2-.6z"/>
        </g>
        <g class="am-weather-moon-star-2">
          <path fill="orange" stroke-miterlimit="10" transform="translate(20,10)" d="M3.3 1.5 4 2.7l1.2.6L4 4l-.7 1.2L2.7 4l-1.2-.7 1.2-.6z"/>
        </g>
        <g class="am-weather-moon">
          <path d="M14.5 13.2c0-3.7 2-6.9 5-8.7-1.5-.9-3.2-1.3-5-1.3-5.5 0-10 4.5-10 10s4.5 10 10 10c1.8 0 3.5-.5 5-1.3-3-1.7-5-5-5-8.7z" fill="orange" stroke="orange" stroke-linejoin="round" stroke-width="2"/>
        </g>
      </g>
      <g class="am-weather-cloud-2">
        <path d="M27.7 24.4c0-4.6-3.7-8.2-8.2-8.2-1 0-1.9.2-2.8.5-.3-3.4-3.1-6.2-6.6-6.2-3.7 0-6.7 3-6.7 6.7 0 .8.2 1.6.4 2.3-.3-.1-.7-.1-1-.1-3.7 0-6.7 3-6.7 6.7 0 3.6 2.9 6.6 6.5 6.7h17.2c4.4-.5 7.9-4 7.9-8.4z" fill="#C6DEFF" stroke="#fff" stroke-linejoin="round" stroke-width="1.2"/>
      </g>
    </g>
  </g>
  <g id="cloudy-day-2">
    <g transform="translate(20,10)">
      <g transform="translate(0,16)">
        <g class="am-weather-sun">
          <g>
            <path fill="none" stroke="orange" stroke-linecap="round" stroke-width="2" d="M0 9v3"/>
          </g>
          <g transform="rotate(45)">
            <path fill="none" stroke="orange" stroke-linecap="round" stroke-width="2" d="M0 9v3"/>
          </g>
          <g transform="rotate(90)">
            <path fill="none" stroke="orange" stroke-linecap="round" stroke-width="2" d="M0 9v3"/>
          </g>
          <g transform="rotate(135)">
            <path fill="none" stroke="orange" stroke-linecap="round" stroke-width="2" d="M0 9v3"/>
          </g>
          <g transform="rotate(180)">
            <path fill="none" stroke="orange" stroke-linecap="round" stroke-width="2" d="M0 9v3"/>
          </g>
          <g transform="rotate(225)">
            <path fill="none" stroke="orange" stroke-linecap="round" stroke-width="2" d="M0 9v3"/>
          </g>
          <g transform="rotate(270)">
            <path fill="none" stroke="orange" stroke-linecap="round" stroke-width="2" d="M0 9v3"/>
          </g>
          <g transform="rotate(315)">
            <path fill="none" stroke="orange" stroke-linecap="round" stroke-width="2" d="M0 9v3"/>
          </g>
        </g>
        <circle fill="orange" r="5" stroke="orange" stroke-width="2"/>
      </g>
      <g class="am-weather-cloud-2">
        <path d="M27.7 24.4c0-4.6-3.7-8.2-8.2-8.2-1 0-1.9.2-2.8.5-.3-3.4-3.1-6.2-6.6-6.2-3.7 0-6.7 3-6.7 6.7 0 .8.2 1.6.4 2.3-.3-.1-.7-.1-1-.1-3.7 0-6.7 3-6.7 6.7 0 3.6 2.9 6.6 6.5 6.7h17.2c4.4-.5 7.9-4 7.9-8.4z" fill="#91C0F8" stroke="#fff" stroke-linejoin="round" stroke-width="1.2"/>
      </g>
    </g>
  </g>
  <g id="cloudy-night-2">
    <g transform="translate(20,10)">
      <g transform="translate(16,4), scale(0.8)">
        <g class="am-weather-moon-star-1">
          <path fill="orange" stroke-miterlimit="10" d="M3.3 1.5 4 2.7l1.2.6L4 4l-.7 1.2L2.7 4l-1.2-.7 1.2-.6z"/>
        </g>
        <g class="am-weather-moon-star-2">
          <path fill="orange" stroke-miterlimit="10" transform="translate(20,10)" d="M3.3 1.5 4 2.7l1.2.6L4 4l-.7 1.2L2.7 4l-1.2-.7 1.2-.6z"/>
        </g>
        <g class="am-weather-moon">
          <path d="M14.5 13.2c0-3.7 2-6.9 5-8.7-1.5-.9-3.2-1.3-5-1.3-5.5 0-10 4.5-10 10s4.5 10 10 10c1.8 0 3.5-.5 5-1.3-3-1.7-5-5-5-8.7z" fill="orange" stroke="orange" stroke-linejoin="round" stroke-width="2"/>
        </g>
      </g>
      <g class="am-weather-cloud-2">
        <path d="M27.7 24.4c0-4.6-3.7-8.2-8.2-8.2-1 0-1.9.2-2.8.5-.3-3.4-3.1-6.2-6.6-6.2-3.7 0-6.7 3-6.7 6.7 0 .8.2 1.6.4 2.3-.3-.1-.7-.1-1-.1-3.7 0-6.7 3-6.7 6.7 0 3.6 2.9 6.6 6.5 6.7h17.2c4.4-.5 7.9-4 7.9-8.4z" fill="#91C0F8" stroke="#fff" stroke-linejoin="round" stroke-width="1.2"/>
      </g>
    </g>
  </g>
  <g id="cloudy-day-3">
    <g transform="translate(20,10)">
      <g transform="translate(0,16)">
        <g class="am-weather-sun">
          <g>
            <path fill="none" stroke="orange" stroke-linecap="round" stroke-width="2" d="M0 9v3"/>
          </g>
          <g transform="rotate(45)">
            <path fill="none" stroke="orange" stroke-linecap="round" stroke-width="2" d="M0 9v3"/>
          </g>
          <g transform="rotate(90)">
            <path fill="none" stroke="orange" stroke-linecap="round" stroke-width="2" d="M0 9v3"/>
          </g>
          <g transform="rotate(135)">
            <path fill="none" stroke="orange" stroke-linecap="round" stroke-width="2" d="M0 9v3"/>
          </g>
          <g transform="rotate(180)">
            <path fill="none" stroke="orange" stroke-linecap="round" stroke-width="2" d="M0 9v3"/>
          </g>
          <g transform="rotate(225)">
            <path fill="none" stroke="orange" stroke-linecap="round" stroke-width="2" d="M0 9v3"/>
          </g>
          <g transform="rotate(270)">
            <path fill="none" stroke="orange" stroke-linecap="round" stroke-width="2" d="M0 9v3"/>
          </g>
          <g transform="rotate(315)">
            <path fill="none" stroke="orange" stroke-linecap="round" stroke-width="2" d="M0 9v3"/>
          </g>
        </g>
        <circle fill="orange" r="5" stroke="orange" stroke-width="2"/>
      </g>
      <g class="am-weather-cloud-2">
        <path d="M27.7 24.4c0-4.6-3.7-8.2-8.2-8.2-1 0-1.9.2-2.8.5-.3-3.4-3.1-6.2-6.6-6.2-3.7 0-6.7 3-6.7 6.7 0 .8.2 1.6.4 2.3-.3-.1-.7-.1-1-.1-3.7 0-6.7 3-6.7 6.7 0 3.6 2.9 6.6 6.5 6.7h17.2c4.4-.5 7.9-4 7.9-8.4z" fill="#57A0EE" stroke="#fff" stroke-linejoin="round" stroke-width="1.2"/>
      </g>
    </g>
  </g>
  <g id="cloudy-night-3">
    <g transform="translate(20,10)">
      <g transform="translate(16,4), scale(0.8)">
        <g class="am-weather-moon-star-1">
          <path fill="orange" stroke-miterlimit="10" d="M3.3 1.5 4 2.7l1.2.6L4 4l-.7 1.2L2.7 4l-1.2-.7 1.2-.6z"/>
        </g>
        <g class="am-weather-moon-star-2">
          <path fill="orange" stroke-miterlimit="10" transform="translate(20,10)" d="M3.3 1.5 4 2.7l1.2.6L4 4l-.7 1.2L2.7 4l-1.2-.7 1.2-.6z"/>
        </g>
        <g class="am-weather-moon">
          <path d="M14.5 13.2c0-3.7 2-6.9 5-8.7-1.5-.9-3.2-1.3-5-1.3-5.5 0-10 4.5-10 10s4.5 10 10 10c1.8 0 3.5-.5 5-1.3-3-1.7-5-5-5-8.7z" fill="orange" stroke="orange" stroke-linejoin="round" stroke-width="2"/>
        </g>
      </g>
      <g class="am-weather-cloud-2">
        <path d="M27.7 24.4c0-4.6-3.7-8.2-8.2-8.2-1 0-1.9.2-2.8.5-.3-3.4-3.1-6.2-6.6-6.2-3.7 0-6.7 3-6.7 6.7 0 .8.2 1.6.4 2.3-.3-.1-.7-.1-1-.1-3.7 0-6.7 3-6.7 6.7 0 3.6 2.9 6.6 6.5 6.7h17.2c4.4-.5 7.9-4 7.9-8.4z" fill="#57A0EE" stroke="#fff" stroke-linejoin="round" stroke-width="1.2"/>
      </g>
    </g>
  </g>
  <g id="cloudy">
    <g transform="translate(20,10)">
      <g class="am-weather-cloud-1">
        <path d="M18.62 13.24c0-2.76-2.22-4.92-4.92-4.92-.6 0-1.14.12-1.68.3-.18-2.04-1.86-3.72-3.96-3.72-2.22 0-4.02 1.8-4.02 4.02 0 .48.12.96.24 1.38-.18-.06-.42-.06-.6-.06-2.22 0-4.02 1.8-4.02 4.02 0 2.16 1.74 3.96 3.9 4.02h10.32c2.64-.3 4.74-2.4 4.74-5.04z" fill="#91C0F8" stroke="#fff" stroke-linejoin="round" stroke-width=".72"/>
      </g>
      <g class="am-weather-cloud-2">
        <path d="M27.7 24.4c0-4.6-3.7-8.2-8.2-8.2-1 0-1.9.2-2.8.5-.3-3.4-3.1-6.2-6.6-6.2-3.7 0-6.7 3-6.7 6.7 0 .8.2 1.6.4 2.3-.3-.1-.7-.1-1-.1-3.7 0-6.7 3-6.7 6.7 0 3.6 2.9 6.6 6.5 6.7h17.2c4.4-.5 7.9-4 7.9-8.4z" fill="#57A0EE" stroke="#fff" stroke-linejoin="round" stroke-width="1.2"/>
      </g>
    </g>
  </g>
  <g id="rainy-1">
    <g transform="translate(20,10)">
      <g transform="translate(0,16), scale(1.2)">
        <g class="am-weather-sun">
          <g>
            <path fill="none" stroke="orange" stroke-linecap="round" stroke-width="2" d="M0 9v3"/>
          </g>
          <g transform="rotate(45)">
            <path fill="none" stroke="orange" stroke-linecap="round" stroke-width="2" d="M0 9v3"/>
          </g>
          <g transform="rotate(90)">
            <path fill="none" stroke="orange" stroke-linecap="round" stroke-width="2" d="M0 9v3"/>
          </g>
          <g transform="rotate(135)">
            <path fill="none" stroke="orange" stroke-linecap="round" stroke-width="2" d="M0 9v3"/>
          </g>
          <g transform="rotate(180)">
            <path fill="none" stroke="orange" stroke-linecap="round" stroke-width="2" d="M0 9v3"/>
          </g>
          <g transform="rotate(225)">
            <path fill="none" stroke="orange" stroke-linecap="round" stroke-width="2" d="M0 9v3"/>
          </g>
          <g transform="rotate(270)">
            <path fill="none" stroke="orange" stroke-linecap="round" stroke-width="2" d="M0 9v3"/>
          </g>
          <g transform="rotate(315)">
            <path fill="none" stroke="orange" stroke-linecap="round" stroke-width="2" d="M0 9v3"/>
          </g>
        </g>
        <circle fill="orange" r="5" stroke="orange" stroke-width="2"/>
      </g>
      <g>
        <path d="M25.545 25.09c0-3.91-3.145-6.97-6.97-6.97-.85 0-1.615.17-2.38.425-.255-2.89-2.635-5.27-5.61-5.27-3.145 0-5.695 2.55-5.695 5.695 0 .68.17 1.36.34 1.955-.255-.085-.595-.085-.85-.085-3.145 0-5.695 2.55-5.695 5.695 0 3.06 2.465 5.61 5.525 5.695h14.62c3.74-.425 6.715-3.4 6.715-7.14z" fill="#57A0EE" stroke="#fff" stroke-linejoin="round" stroke-width="1.275"/>
      </g>
    </g>
    <g transform="translate(34,46), rotate(10)">
      <path class="am-weather-rain-1" fill="none" stroke="#91C0F8" stroke-dasharray="4,7" stroke-linecap="round" stroke-width="2" d="M-6 1v8"/>
      <path class="am-weather-rain-2" fill="none" stroke="#91C0F8" stroke-dasharray="4,7" stroke-linecap="round" stroke-width="2" d="M0-1v8"/>
    </g>
  </g>
  <g id="rainy-2">
    <g transform="translate(20,10)">
      <g transform="translate(0,16)">
        <g class="am-weather-sun">
          <g>
            <path fill="none" stroke="orange" stroke-linecap="round" stroke-width="2" d="M0 9v3"/>
          </g>
          <g transform="rotate(45)">
            <path fill="none" stroke="orange" stroke-linecap="round" stroke-width="2" d="M0 9v3"/>
          </g>
          <g transform="rotate(90)">
            <path fill="none" stroke="orange" stroke-linecap="round" stroke-width="2" d="M0 9v3"/>
          </g>
          <g transform="rotate(135)">
            <path fill="none" stroke="orange" stroke-linecap="round" stroke-width="2" d="M0 9v3"/>
          </g>
          <g transform="rotate(180)">
            <path fill="none" stroke="orange" stroke-linecap="round" stroke-width="2" d="M0 9v3"/>
          </g>
          <g transform="rotate(225)">
            <path fill="none" stroke="orange" stroke-linecap="round" stroke-width="2" d="M0 9v3"/>
          </g>
          <g transform="rotate(270)">
            <path fill="none" stroke="orange" stroke-linecap="round" stroke-width="2" d="M0 9v3"/>
          </g>
          <g transform="rotate(315)">
            <path fill="none" stroke="orange" stroke-linecap="round" stroke-width="2" d="M0 9v3"/>
          </g>
        </g>
        <circle fill="orange" r="5" stroke="orange" stroke-width="2"/>
      </g>
      <g>
        <path d="M27.7 24.4c0-4.6-3.7-8.2-8.2-8.2-1 0-1.9.2-2.8.5-.3-3.4-3.1-6.2-6.6-6.2-3.7 0-6.7 3-6.7 6.7 0 .8.2 1.6.4 2.3-.3-.1-.7-.1-1-.1-3.7 0-6.7 3-6.7 6.7 0 3.6 2.9 6.6 6.5 6.7h17.2c4.4-.5 7.9-4 7.9-8.4z" fill="#57A0EE" stroke="#fff" stroke-linejoin="round" stroke-width="1.2"/>
      </g>
    </g>
    <g transform="translate(37,45), rotate(10)">
      <path class="am-weather-rain-1" fill="none" stroke="#91C0F8" stroke-dasharray="4,7" stroke-linecap="round" stroke-width="2" d="M-6 1v8"/>
    </g>
  </g>
  <g id="rainy-3">
    <g transform="translate(20,10)">
      <g transform="translate(0,16)">
        <g class="am-weather-sun">
          <g>
            <path stroke="orange" stroke-linecap="round" stroke-width="2" d="M0 9v3"/>
          </g>
          <g transform="rotate(45)">
            <path fill="none" stroke="orange" stroke-linecap="round" stroke-width="2" d="M0 9v3"/>
          </g>
          <g transform="rotate(90)">
            <path fill="none" stroke="orange" stroke-linecap="round" stroke-width="2" d="M0 9v3"/>
          </g>
          <g transform="rotate(135)">
            <path fill="none" stroke="orange" stroke-linecap="round" stroke-width="2" d="M0 9v3"/>
          </g>
          <g transform="rotate(180)">
            <path fill="none" stroke="orange" stroke-linecap="round" stroke-width="2" d="M0 9v3"/>
          </g>
          <g transform="rotate(225)">
            <path fill="none" stroke="orange" stroke-linecap="round" stroke-width="2" d="M0 9v3"/>
          </g>
          <g transform="rotate(270)">
            <path fill="none" stroke="orange" stroke-linecap="round" stroke-width="2" d="M0 9v3"/>
          </g>
          <g transform="rotate(315)">
            <path fill="none" stroke="orange" stroke-linecap="round" stroke-width="2" d="M0 9v3"/>
          </g>
        </g>
        <circle fill="orange" r="5" stroke="orange" stroke-width="2"/>
      </g>
      <g>
        <path d="M27.7 24.4c0-4.6-3.7-8.2-8.2-8.2-1 0-1.9.2-2.8.5-.3-3.4-3.1-6.2-6.6-6.2-3.7 0-6.7 3-6.7 6.7 0 .8.2 1.6.4 2.3-.3-.1-.7-.1-1-.1-3.7 0-6.7 3-6.7 6.7 0 3.6 2.9 6.6 6.5 6.7h17.2c4.4-.5 7.9-4 7.9-8.4z" fill="#57A0EE" stroke="#fff" stroke-linejoin="round" stroke-width="1.2"/>
      </g>
    </g>
    <g transform="translate(34,46), rotate(10)">
      <path class="am-weather-rain-1" fill="none" stroke="#91C0F8" stroke-dasharray="4,7" stroke-linecap="round" stroke-width="2" d="M-6 1v8"/>
      <path class="am-weather-rain-2" fill="none" stroke="#91C0F8" stroke-dasharray="4,7" stroke-linecap="round" stroke-width="2" d="M0-1v8"/>
    </g>
  </g>
  <g id="rainy-4">
    <g transform="translate(20,10)">
      <g>
        <path d="M27.7 24.4c0-4.6-3.7-8.2-8.2-8.2-1 0-1.9.2-2.8.5-.3-3.4-3.1-6.2-6.6-6.2-3.7 0-6.7 3-6.7 6.7 0 .8.2 1.6.4 2.3-.3-.1-.7-.1-1-.1-3.7 0-6.7 3-6.7 6.7 0 3.6 2.9 6.6 6.5 6.7h17.2c4.4-.5 7.9-4 7.9-8.4z" fill="#57A0EE" stroke="#fff" stroke-linejoin="round" stroke-width="1.2"/>
      </g>
    </g>
    <g transform="translate(37,45), rotate(10)">
      <path class="am-weather-rain-1" fill="none" stroke="#91C0F8" stroke-dasharray="4,7" stroke-linecap="round" stroke-width="2" d="M-6 1v8"/>
    </g>
  </g>
  <g id="rainy-5">
    <g transform="translate(20,10)">
      <g>
        <path d="M27.7 24.4c0-4.6-3.7-8.2-8.2-8.2-1 0-1.9.2-2.8.5-.3-3.4-3.1-6.2-6.6-6.2-3.7 0-6.7 3-6.7 6.7 0 .8.2 1.6.4 2.3-.3-.1-.7-.1-1-.1-3.7 0-6.7 3-6.7 6.7 0 3.6 2.9 6.6 6.5 6.7h17.2c4.4-.5 7.9-4 7.9-8.4z" fill="#57A0EE" stroke="#fff" stroke-linejoin="round" stroke-width="1.2"/>
      </g>
    </g>
    <g transform="translate(34,46), rotate(10)">
      <path class="am-weather-rain-1" fill="none" stroke="#91C0F8" stroke-dasharray="4,7" stroke-linecap="round" stroke-width="2" d="M-6 1v8"/>
      <path class="am-weather-rain-2" fill="none" stroke="#91C0F8" stroke-dasharray="4,7" stroke-linecap="round" stroke-width="2" d="M0-1v8"/>
    </g>
  </g>
  <g id="rainy-6">
    <g transform="translate(20,10)">
      <g>
        <path d="M27.7 24.4c0-4.6-3.7-8.2-8.2-8.2-1 0-1.9.2-2.8.5-.3-3.4-3.1-6.2-6.6-6.2-3.7 0-6.7 3-6.7 6.7 0 .8.2 1.6.4 2.3-.3-.1-.7-.1-1-.1-3.7 0-6.7 3-6.7 6.7 0 3.6 2.9 6.6 6.5 6.7h17.2c4.4-.5 7.9-4 7.9-8.4z" fill="#57A0EE" stroke="#fff" stroke-linejoin="round" stroke-width="1.2"/>
      </g>
    </g>
    <g transform="translate(31,46), rotate(10)">
      <path class="am-weather-rain-1" fill="none" stroke="#91C0F8" stroke-dasharray="4,4" stroke-linecap="round" stroke-width="2" d="M-4 1v8"/>
      <path class="am-weather-rain-2" fill="none" stroke="#91C0F8" stroke-dasharray="4,4" stroke-linecap="round" stroke-width="2" d="M0-1v8"/>
      <path class="am-weather-rain-1" fill="none" stroke="#91C0F8" stroke-dasharray="4,4" stroke-linecap="round" stroke-width="2" d="M4 0v8"/>
    </g>
  </g>
  <g id="rainy-7">
    <g transform="translate(20,10)">
      <g>
        <path d="M27.7 24.4c0-4.6-3.7-8.2-8.2-8.2-1 0-1.9.2-2.8.5-.3-3.4-3.1-6.2-6.6-6.2-3.7 0-6.7 3-6.7 6.7 0 .8.2 1.6.4 2.3-.3-.1-.7-.1-1-.1-3.7 0-6.7 3-6.7 6.7 0 3.6 2.9 6.6 6.5 6.7h17.2c4.4-.5 7.9-4 7.9-8.4z" fill="#57A0EE" stroke="#fff" stroke-linejoin="round" stroke-width="1.2"/>
      </g>
    </g>
    <g transform="translate(31,46), rotate(10)">
      <path class="am-weather-rain-1" fill="none" stroke="#91C0F8" stroke-dasharray="0.1,7" stroke-linecap="round" stroke-width="3" d="M-5 1v8"/>
      <path class="am-weather-rain-2" fill="none" stroke="#91C0F8" stroke-dasharray="0.1,7" stroke-linecap="round" stroke-width="3" d="M0-1v8"/>
      <path class="am-weather-rain-1" fill="none" stroke="#91C0F8" stroke-dasharray="0.1,7" stroke-linecap="round" stroke-width="3" d="M5 0v8"/>
    </g>
  </g>
  <g id="snowy-1">
    <g transform="translate(20,10)">
      <g transform="translate(0,16), scale(1.2)">
        <g class="am-weather-sun">
          <g>
            <path fill="none" stroke="orange" stroke-linecap="round" stroke-width="2" d="M0 9v3"/>
          </g>
          <g transform="rotate(45)">
            <path fill="none" stroke="orange" stroke-linecap="round" stroke-width="2" d="M0 9v3"/>
          </g>
          <g transform="rotate(90)">
            <path fill="none" stroke="orange" stroke-linecap="round" stroke-width="2" d="M0 9v3"/>
          </g>
          <g transform="rotate(135)">
            <path fill="none" stroke="orange" stroke-linecap="round" stroke-width="2" d="M0 9v3"/>
          </g>
          <g transform="rotate(180)">
            <path fill="none" stroke="orange" stroke-linecap="round" stroke-width="2" d="M0 9v3"/>
          </g>
          <g transform="rotate(225)">
            <path fill="none" stroke="orange" stroke-linecap="round" stroke-width="2" d="M0 9v3"/>
          </g>
          <g transform="rotate(270)">
            <path fill="none" stroke="orange" stroke-linecap="round" stroke-width="2" d="M0 9v3"/>
          </g>
          <g transform="rotate(315)">
            <path fill="none" stroke="orange" stroke-linecap="round" stroke-width="2" d="M0 9v3"/>
          </g>
        </g>
        <circle fill="orange" r="5" stroke="orange" stroke-width="2"/>
      </g>
      <g>
        <path d="M25.545 25.09c0-3.91-3.145-6.97-6.97-6.97-.85 0-1.615.17-2.38.425-.255-2.89-2.635-5.27-5.61-5.27-3.145 0-5.695 2.55-5.695 5.695 0 .68.17 1.36.34 1.955-.255-.085-.595-.085-.85-.085-3.145 0-5.695 2.55-5.695 5.695 0 3.06 2.465 5.61 5.525 5.695h14.62c3.74-.425 6.715-3.4 6.715-7.14z" fill="#57A0EE" stroke="#fff" stroke-linejoin="round" stroke-width="1.275"/>
      </g>
    </g>
    <g transform="translate(20,9)">
      <g class="am-weather-snow-1">
        <g transform="translate(7,28)" fill="none" stroke="#57A0EE" stroke-linecap="round">
          <path stroke-width="1.2" d="M0 6.5v5"/>
          <path transform="translate(0,9), rotate(45)" d="M0-2.5v5"/>
          <path transform="translate(0,9), rotate(90)" d="M0-2.5v5"/>
          <path transform="translate(0,9), rotate(135)" d="M0-2.5v5"/>
        </g>
      </g>
      <g class="am-weather-snow-2">
        <g transform="translate(16,28)" fill="none" stroke="#57A0EE" stroke-linecap="round">
          <path stroke-width="1.2" d="M0 6.5v5"/>
          <path transform="translate(0,9), rotate(45)" d="M0-2.5v5"/>
          <path transform="translate(0,9), rotate(90)" d="M0-2.5v5"/>
          <path transform="translate(0,9), rotate(135)" d="M0-2.5v5"/>
        </g>
      </g>
    </g>
  </g>
  <g id="snowy-2">
    <g transform="translate(20,10)">
      <g transform="translate(0,16)">
        <g class="am-weather-sun">
          <g>
            <path fill="none" stroke="orange" stroke-linecap="round" stroke-width="2" d="M0 9v3"/>
          </g>
          <g transform="rotate(45)">
            <path fill="none" stroke="orange" stroke-linecap="round" stroke-width="2" d="M0 9v3"/>
          </g>
          <g transform="rotate(90)">
            <path fill="none" stroke="orange" stroke-linecap="round" stroke-width="2" d="M0 9v3"/>
          </g>
          <g transform="rotate(135)">
            <path fill="none" stroke="orange" stroke-linecap="round" stroke-width="2" d="M0 9v3"/>
          </g>
          <g transform="rotate(180)">
            <path fill="none" stroke="orange" stroke-linecap="round" stroke-width="2" d="M0 9v3"/>
          </g>
          <g transform="rotate(225)">
            <path fill="none" stroke="orange" stroke-linecap="round" stroke-width="2" d="M0 9v3"/>
          </g>
          <g transform="rotate(270)">
            <path fill="none" stroke="orange" stroke-linecap="round" stroke-width="2" d="M0 9v3"/>
          </g>
          <g transform="rotate(315)">
            <path fill="none" stroke="orange" stroke-linecap="round" stroke-width="2" d="M0 9v3"/>
          </g>
        </g>
        <circle fill="orange" r="5" stroke="orange" stroke-width="2"/>
      </g>
      <g class="am-weather-cloud-2">
        <path d="M27.7 24.4c0-4.6-3.7-8.2-8.2-8.2-1 0-1.9.2-2.8.5-.3-3.4-3.1-6.2-6.6-6.2-3.7 0-6.7 3-6.7 6.7 0 .8.2 1.6.4 2.3-.3-.1-.7-.1-1-.1-3.7 0-6.7 3-6.7 6.7 0 3.6 2.9 6.6 6.5 6.7h17.2c4.4-.5 7.9-4 7.9-8.4z" fill="#57A0EE" stroke="#fff" stroke-linejoin="round" stroke-width="1.2"/>
      </g>
    </g>
    <g class="am-weather-snow-1">
      <g transform="translate(32,38)" fill="none" stroke="#57A0EE" stroke-linecap="round">
        <path stroke-width="1.2" d="M0 6.5v5"/>
        <path transform="translate(0,9), rotate(45)" d="M0-2.5v5"/>
        <path transform="translate(0,9), rotate(90)" d="M0-2.5v5"/>
        <path transform="translate(0,9), rotate(135)" d="M0-2.5v5"/>
      </g>
    </g>
  </g>
  <g id="snowy-3">
    <g transform="translate(20,10)">
      <g transform="translate(0,16)">
        <g class="am-weather-sun">
          <g>
            <path fill="none" stroke="orange" stroke-linecap="round" stroke-width="2" d="M0 9v3"/>
          </g>
          <g transform="rotate(45)">
            <path fill="none" stroke="orange" stroke-linecap="round" stroke-width="2" d="M0 9v3"/>
          </g>
          <g transform="rotate(90)">
            <path fill="none" stroke="orange" stroke-linecap="round" stroke-width="2" d="M0 9v3"/>
          </g>
          <g transform="rotate(135)">
            <path fill="none" stroke="orange" stroke-linecap="round" stroke-width="2" d="M0 9v3"/>
          </g>
          <g transform="rotate(180)">
            <path fill="none" stroke="orange" stroke-linecap="round" stroke-width="2" d="M0 9v3"/>
          </g>
          <g transform="rotate(225)">
            <path fill="none" stroke="orange" stroke-linecap="round" stroke-width="2" d="M0 9v3"/>
          </g>
          <g transform="rotate(270)">
            <path fill="none" stroke="orange" stroke-linecap="round" stroke-width="2" d="M0 9v3"/>
          </g>
          <g transform="rotate(315)">
            <path fill="none" stroke="orange" stroke-linecap="round" stroke-width="2" d="M0 9v3"/>
          </g>
        </g>
        <circle fill="orange" r="5" stroke="orange" stroke-width="2"/>
      </g>
      <g>
        <path d="M27.7 24.4c0-4.6-3.7-8.2-8.2-8.2-1 0-1.9.2-2.8.5-.3-3.4-3.1-6.2-6.6-6.2-3.7 0-6.7 3-6.7 6.7 0 .8.2 1.6.4 2.3-.3-.1-.7-.1-1-.1-3.7 0-6.7 3-6.7 6.7 0 3.6 2.9 6.6 6.5 6.7h17.2c4.4-.5 7.9-4 7.9-8.4z" fill="#57A0EE" stroke="#fff" stroke-linejoin="round" stroke-width="1.2"/>
      </g>
      <g class="am-weather-snow-1">
        <g transform="translate(7,28)" fill="none" stroke="#57A0EE" stroke-linecap="round">
          <path stroke-width="1.2" d="M0 6.5v5"/>
          <path transform="translate(0,9), rotate(45)" d="M0-2.5v5"/>
          <path transform="translate(0,9), rotate(90)" d="M0-2.5v5"/>
          <path transform="translate(0,9), rotate(135)" d="M0-2.5v5"/>
        </g>
      </g>
      <g class="am-weather-snow-2">
        <g transform="translate(16,28)" fill="none" stroke="#57A0EE" stroke-linecap="round">
          <path stroke-width="1.2" d="M0 6.5v5"/>
          <path transform="translate(0,9), rotate(45)" d="M0-2.5v5"/>
          <path transform="translate(0,9), rotate(90)" d="M0-2.5v5"/>
          <path transform="translate(0,9), rotate(135)" d="M0-2.5v5"/>
        </g>
      </g>
    </g>
  </g>
  <g id="snowy-4">
    <g transform="translate(20,10)">
      <g>
        <path d="M27.7 24.4c0-4.6-3.7-8.2-8.2-8.2-1 0-1.9.2-2.8.5-.3-3.4-3.1-6.2-6.6-6.2-3.7 0-6.7 3-6.7 6.7 0 .8.2 1.6.4 2.3-.3-.1-.7-.1-1-.1-3.7 0-6.7 3-6.7 6.7 0 3.6 2.9 6.6 6.5 6.7h17.2c4.4-.5 7.9-4 7.9-8.4z" fill="#57A0EE" stroke="#fff" stroke-linejoin="round" stroke-width="1.2"/>
      </g>
      <g class="am-weather-snow-1">
        <g transform="translate(11,28)" fill="none" stroke="#57A0EE" stroke-linecap="round">
          <path stroke-width="1.2" d="M0 6.5v5"/>
          <path transform="translate(0,9), rotate(45)" d="M0-2.5v5"/>
          <path transform="translate(0,9), rotate(90)" d="M0-2.5v5"/>
          <path transform="translate(0,9), rotate(135)" d="M0-2.5v5"/>
        </g>
      </g>
    </g>
  </g>
  <g id="snowy-5">
    <g transform="translate(20,10)">
      <g class="snowy-6-2">
        <path d="M27.7 24.4c0-4.6-3.7-8.2-8.2-8.2-1 0-1.9.2-2.8.5-.3-3.4-3.1-6.2-6.6-6.2-3.7 0-6.7 3-6.7 6.7 0 .8.2 1.6.4 2.3-.3-.1-.7-.1-1-.1-3.7 0-6.7 3-6.7 6.7 0 3.6 2.9 6.6 6.5 6.7h17.2c4.4-.5 7.9-4 7.9-8.4z" fill="#57A0EE" stroke="#fff" stroke-linejoin="round" stroke-width="1.2"/>
      </g>
      <g class="am-weather-snow-1">
        <g transform="translate(7,28)" fill="none" stroke="#57A0EE" stroke-linecap="round">
          <path stroke-width="1.2" d="M0 6.5v5"/>
          <path transform="translate(0,9), rotate(45)" d="M0-2.5v5"/>
          <path transform="translate(0,9), rotate(90)" d="M0-2.5v5"/>
          <path transform="translate(0,9), rotate(135)" d="M0-2.5v5"/>
        </g>
      </g>
      <g class="am-weather-snow-2">
        <g transform="translate(16,28)" fill="none" stroke="#57A0EE" stroke-linecap="round">
          <path stroke-width="1.2" d="M0 6.5v5"/>
          <path transform="translate(0,9), rotate(45)" d="M0-2.5v5"/>
          <path transform="translate(0,9), rotate(90)" d="M0-2.5v5"/>
          <path transform="translate(0,9), rotate(135)" d="M0-2.5v5"/>
        </g>
      </g>
    </g>
  </g>
  <g id="snowy-6">
    <g transform="translate(20,10)">
      <g class="am-weather-cloud-2">
        <path d="M27.7 24.4c0-4.6-3.7-8.2-8.2-8.2-1 0-1.9.2-2.8.5-.3-3.4-3.1-6.2-6.6-6.2-3.7 0-6.7 3-6.7 6.7 0 .8.2 1.6.4 2.3-.3-.1-.7-.1-1-.1-3.7 0-6.7 3-6.7 6.7 0 3.6 2.9 6.6 6.5 6.7h17.2c4.4-.5 7.9-4 7.9-8.4z" fill="#57A0EE" stroke="#fff" stroke-linejoin="round" stroke-width="1.2"/>
      </g>
      <g class="am-weather-snow-1">
        <g transform="translate(3,28)" fill="none" stroke="#57A0EE" stroke-linecap="round">
          <path stroke-width="1.2" d="M0 6.5v5"/>
          <path transform="translate(0,9), rotate(45)" d="M0-2.5v5"/>
          <path transform="translate(0,9), rotate(90)" d="M0-2.5v5"/>
          <path transform="translate(0,9), rotate(135)" d="M0-2.5v5"/>
        </g>
      </g>
      <g class="am-weather-snow-2">
        <g transform="translate(11,28)" fill="none" stroke="#57A0EE" stroke-linecap="round">
          <path stroke-width="1.2" d="M0 6.5v5"/>
          <path transform="translate(0,9), rotate(45)" d="M0-2.5v5"/>
          <path transform="translate(0,9), rotate(90)" d="M0-2.5v5"/>
          <path transform="translate(0,9), rotate(135)" d="M0-2.5v5"/>
        </g>
      </g>
      <g class="am-weather-snow-3">
        <g transform="translate(20,28)" fill="none" stroke="#57A0EE" stroke-linecap="round">
          <path stroke-width="1.2" d="M0 6.5v5"/>
          <path transform="translate(0,9), rotate(45)" d="M0-2.5v5"/>
          <path transform="translate(0,9), rotate(90)" d="M0-2.5v5"/>
          <path transform="translate(0,9), rotate(135)" d="M0-2.5v5"/>
        </g>
      </g>
    </g>
  </g>
</svg>
